<?xml version="1.0" standalone="no"?>
<!DOCTYPE svg PUBLIC "-//W3C//DTD SVG 20010904//EN"
 "http://www.w3.org/TR/2001/REC-SVG-20010904/DTD/svg10.dtd">
<svg version="1.0" xmlns="http://www.w3.org/2000/svg"
 width="1024.000000pt" height="1024.000000pt" viewBox="0 0 1024.000000 1024.000000"
 preserveAspectRatio="xMidYMid meet">

<g transform="translate(0.000000,1024.000000) scale(0.100000,-0.100000)"
fill="#000000" stroke="none">
<path d="M4205 9731 c-191 -55 -333 -200 -374 -381 -15 -65 -13 -165 4 -239
42 -177 169 -309 353 -368 82 -26 88 -26 185 -16 124 14 217 57 307 140 89 82
140 189 153 322 9 85 8 109 -8 168 -9 37 -18 76 -18 85 -1 9 -3 15 -5 13 -3
-2 -21 22 -42 53 -122 187 -355 281 -555 223z m208 -185 c51 -19 111 -61 141
-101 l25 -32 -66 -42 -66 -42 -21 25 c-73 86 -215 67 -265 -37 -25 -51 -27
-94 -6 -144 46 -108 165 -145 251 -77 20 16 42 33 48 38 8 6 32 -5 69 -29 63
-42 63 -46 5 -102 -84 -81 -238 -111 -340 -65 -62 27 -138 99 -167 158 -28 56
-38 153 -22 220 24 100 100 184 204 226 51 21 157 22 210 4z m187 -231 c0 -18
5 -25 20 -25 15 0 20 7 20 25 0 18 5 25 20 25 17 0 19 -5 14 -25 -5 -19 -2
-25 10 -25 9 0 16 -7 16 -15 0 -8 -7 -15 -15 -15 -9 0 -15 -9 -15 -25 0 -14 5
-25 10 -25 6 0 10 -7 10 -15 0 -8 -6 -12 -15 -9 -9 4 -16 -3 -21 -20 -7 -31
-34 -35 -34 -6 0 13 -7 20 -20 20 -13 0 -20 -7 -20 -20 0 -13 -7 -20 -20 -20
-15 0 -20 7 -20 25 0 14 -5 24 -11 23 -21 -5 -22 23 -1 29 28 7 37 43 10 43
-13 0 -18 6 -16 18 2 10 11 16 21 14 11 -2 17 4 17 16 0 22 8 32 27 32 7 0 13
-11 13 -25z"/>
<path d="M4592 9238 c2 -13 10 -23 18 -23 8 0 16 10 18 23 3 17 -2 22 -18 22
-16 0 -21 -5 -18 -22z"/>
<path d="M5951 9685 c-246 -69 -409 -307 -381 -556 20 -178 131 -331 300 -413
79 -38 91 -41 185 -44 88 -4 110 -1 179 22 102 35 160 74 235 161 221 256 140
637 -170 793 -82 42 -90 44 -190 48 -73 3 -120 0 -158 -11z m236 -170 c56 -24
62 -39 63 -147 0 -153 -14 -168 -165 -168 -51 0 -105 -4 -119 -10 -38 -14 -66
-66 -66 -122 l0 -48 -40 0 c-30 0 -47 7 -65 24 -62 62 -58 226 7 281 28 24 36
25 160 25 99 0 129 3 126 13 -3 8 -31 13 -81 15 l-77 3 0 48 c0 51 14 71 60
90 39 15 156 13 197 -4z m191 -182 c28 -17 41 -49 48 -122 8 -74 -9 -133 -47
-165 -29 -25 -36 -26 -160 -26 -108 0 -129 -2 -129 -15 0 -12 16 -15 80 -15
l80 0 0 -41 c0 -53 -14 -78 -55 -95 -40 -16 -144 -18 -197 -4 -59 17 -68 38
-68 163 0 101 2 109 25 132 22 23 31 25 125 25 156 0 200 30 200 139 l0 50 38
-6 c20 -3 47 -12 60 -20z"/>
<path d="M5977 9473 c-13 -12 -7 -51 8 -57 14 -5 45 17 45 33 0 21 -39 39 -53
24z"/>
<path d="M6160 8945 c-19 -23 -8 -50 20 -50 16 0 26 6 28 18 4 18 -14 47 -28
47 -4 0 -13 -7 -20 -15z"/>
<path d="M2628 9220 c-150 -24 -312 -154 -378 -305 -33 -76 -35 -86 -35 -195
0 -108 2 -120 34 -199 60 -146 196 -266 346 -305 168 -44 361 10 489 139 51
50 117 162 131 220 33 138 23 250 -31 359 -106 211 -322 323 -556 286z m132
-222 c63 -19 167 -111 143 -127 -5 -3 -33 -21 -61 -40 l-52 -33 -28 30 c-16
17 -47 36 -69 42 -37 11 -46 10 -87 -10 -57 -27 -86 -77 -86 -147 0 -97 56
-158 145 -158 45 0 59 5 93 32 l39 32 34 -23 c19 -13 44 -26 57 -30 32 -10 28
-24 -22 -72 -111 -106 -282 -110 -395 -8 -130 117 -142 301 -29 430 77 88 197
118 318 82z m170 -233 c0 -20 5 -25 26 -25 21 0 25 -4 22 -22 -2 -13 -9 -24
-15 -24 -7 -1 -17 -2 -23 -3 -5 0 -10 -13 -10 -27 0 -32 -33 -30 -38 3 -2 14
-12 23 -25 25 -30 4 -30 42 1 46 16 3 22 10 22 28 0 17 5 24 20 24 15 0 20 -7
20 -25z m180 1 c0 -18 6 -25 23 -28 30 -4 30 -42 0 -46 -13 -2 -23 -11 -25
-25 -5 -33 -38 -35 -38 -3 0 21 -5 26 -25 26 -20 0 -25 5 -25 25 0 20 5 25 25
25 20 0 25 5 25 25 0 18 5 25 20 25 15 0 20 -7 20 -24z"/>
<path d="M7505 8989 c-82 -20 -185 -81 -246 -148 -170 -185 -186 -448 -40
-648 168 -229 460 -284 694 -129 135 90 212 224 224 391 9 133 -15 218 -99
345 -53 80 -167 159 -268 185 -63 16 -202 18 -265 4z m350 -270 c37 -9 107
-62 94 -72 -2 -2 -18 -13 -34 -24 -30 -21 -31 -21 -54 -2 -44 36 -101 20 -101
-28 0 -20 13 -30 84 -62 100 -46 128 -79 129 -151 1 -60 -21 -96 -76 -121 -75
-33 -173 -19 -229 33 -35 32 -33 46 10 71 32 19 32 19 63 -7 49 -42 139 -30
139 19 0 21 -33 52 -69 64 -65 21 -118 59 -136 97 -34 73 2 157 78 182 43 14
51 14 102 1z m-275 -171 c0 -189 -9 -238 -47 -274 -53 -49 -161 -44 -218 10
-19 18 -35 37 -35 42 0 8 72 54 84 54 4 0 6 -7 6 -15 0 -16 30 -35 56 -35 10
0 26 7 36 17 16 14 18 34 18 195 l0 178 50 0 50 0 0 -172z"/>
<path d="M4705 8416 c-132 -23 -296 -63 -370 -91 -114 -44 -120 -45 -241 -33
-177 18 -361 -8 -583 -82 -178 -58 -414 -201 -479 -290 -33 -44 -84 -79 -154
-104 -86 -32 -238 -109 -301 -153 -207 -147 -400 -393 -471 -599 -32 -97 -58
-143 -101 -184 -91 -86 -194 -276 -230 -425 -27 -112 -31 -181 -13 -267 10
-47 10 -65 -1 -91 -34 -84 -44 -118 -54 -200 -17 -134 -1 -222 67 -363 30 -62
64 -119 75 -126 27 -17 27 -21 -13 -87 -19 -31 -51 -96 -71 -146 -40 -97 -105
-313 -105 -349 0 -12 -16 -37 -36 -57 -142 -135 -246 -433 -205 -584 25 -94
96 -164 176 -173 27 -3 45 -10 45 -17 0 -19 58 -65 109 -88 36 -16 57 -18 108
-13 52 5 70 3 102 -14 51 -25 113 -25 171 1 54 24 100 66 100 90 0 10 4 21 10
24 11 7 31 76 33 116 2 19 15 36 46 60 71 55 85 80 89 162 3 62 0 84 -25 148
-40 103 -102 190 -179 251 -74 58 -73 47 -28 195 l25 83 42 -21 c23 -12 49
-28 59 -36 18 -16 119 -52 253 -90 78 -22 115 -26 280 -30 105 -2 200 -6 211
-8 17 -4 22 -14 26 -47 10 -84 121 -279 205 -360 73 -70 253 -181 388 -239 70
-30 187 -60 296 -75 125 -17 129 -17 275 5 81 12 155 26 165 32 31 16 42 11
35 -16 -30 -118 -108 -234 -172 -255 -54 -18 -87 -9 -269 74 -202 92 -231 101
-286 86 -55 -15 -130 -90 -148 -150 -8 -25 -21 -58 -29 -75 -25 -50 -112 -296
-112 -316 0 -10 -4 -19 -8 -19 -13 0 -7 -242 6 -267 7 -12 28 -34 47 -49 33
-25 41 -26 109 -22 143 9 271 105 342 255 20 43 37 79 38 80 1 1 42 -12 91
-30 85 -30 98 -32 231 -32 l140 0 85 42 c202 101 336 306 430 656 53 199 59
219 68 234 4 8 30 23 57 33 27 10 73 27 101 39 49 19 253 67 333 78 27 4 48
-3 91 -29 32 -18 89 -51 128 -73 75 -42 218 -141 348 -239 98 -75 379 -355
460 -461 156 -201 347 -511 408 -664 13 -31 42 -101 65 -156 22 -55 51 -124
62 -153 12 -29 36 -66 56 -83 32 -29 38 -30 108 -28 41 2 74 7 74 11 0 4 5 8
11 8 37 0 364 189 421 243 18 18 61 56 95 86 34 29 81 82 104 117 38 59 41 68
35 111 -10 73 -33 104 -104 139 -91 45 -169 56 -272 38 -45 -8 -95 -21 -110
-29 -16 -8 -34 -15 -41 -15 -6 0 -28 -13 -48 -29 l-37 -30 -77 152 c-73 146
-177 327 -248 432 -44 65 -121 169 -129 175 -4 3 -40 48 -82 100 -95 120 -343
361 -431 419 -37 25 -65 46 -63 49 3 2 132 -2 288 -10 156 -7 369 -13 473 -13
179 1 195 2 274 28 197 64 335 204 436 442 l27 64 67 6 c36 4 115 20 174 36
59 16 112 29 117 29 6 0 52 20 103 44 118 56 234 143 331 249 l77 84 47 -4
c54 -6 165 18 220 46 42 21 254 236 276 280 8 15 22 55 31 90 14 57 15 68 1
115 -11 37 -27 62 -56 88 -33 31 -40 43 -40 75 -1 50 -32 117 -64 138 -15 10
-42 23 -62 30 -27 9 -42 23 -58 56 -26 51 -95 103 -151 112 -46 7 -129 -9
-146 -29 -6 -8 -17 -14 -24 -14 -7 0 -33 -22 -59 -50 -42 -45 -51 -50 -91 -50
-64 0 -125 -30 -177 -89 -93 -103 -113 -248 -58 -412 28 -84 29 -91 14 -114
-22 -33 -139 -132 -184 -155 -33 -17 -206 -70 -228 -70 -18 0 -52 232 -56 380
-5 172 -24 272 -75 389 -61 143 -123 233 -238 347 -55 53 -63 66 -63 98 0 95
-56 273 -116 368 -46 72 -114 157 -156 193 -66 56 -89 50 -173 -40 -61 -65
-75 -75 -105 -75 -42 0 -190 39 -190 50 0 5 10 21 23 37 86 105 167 244 167
286 0 56 -158 232 -298 330 -125 89 -237 137 -507 222 -82 26 -181 61 -220 77
-118 52 -229 77 -405 93 -91 9 -194 22 -230 30 -267 60 -395 73 -525 51z m393
-166 c45 -13 82 -26 81 -29 0 -3 -28 -26 -62 -51 -52 -39 -91 -83 -133 -155
-9 -16 -16 -10 -56 46 -58 82 -134 152 -194 181 l-47 23 59 6 c110 12 264 3
352 -21z m-566 -51 c73 -16 201 -84 249 -133 72 -74 128 -238 114 -332 -6 -41
-25 -74 -137 -234 -47 -67 -91 -167 -103 -232 -4 -21 -11 -38 -16 -38 -5 0 -9
4 -9 8 0 4 -15 25 -34 45 -35 39 -80 49 -104 25 -21 -21 -13 -46 38 -112 53
-72 140 -237 140 -268 0 -11 -20 -39 -45 -64 -53 -51 -61 -93 -21 -119 22 -15
27 -15 55 0 l31 15 6 -40 c4 -22 12 -48 19 -57 12 -16 5 -26 -59 -85 -122
-112 -171 -236 -164 -416 3 -106 7 -101 -88 -128 -37 -10 -127 -19 -244 -25
-112 -5 -207 -14 -240 -23 -30 -9 -56 -16 -57 -16 -1 0 -8 24 -16 53 -23 81
-37 176 -42 289 -6 116 -9 136 -37 228 -40 132 -48 148 -76 153 -64 12 -80
-24 -53 -124 25 -93 45 -214 67 -399 27 -222 27 -221 -21 -245 -60 -31 -103
-62 -212 -151 l-98 -81 -45 75 c-67 112 -171 217 -276 280 -48 28 -95 52 -104
52 -11 0 -21 -14 -28 -39 -20 -64 -17 -70 52 -101 120 -53 265 -217 288 -323
9 -42 8 -44 -38 -92 -64 -69 -111 -141 -130 -198 -15 -44 -18 -48 -42 -43 -15
3 -56 8 -92 12 -80 8 -172 36 -225 68 l-39 24 39 11 c70 19 147 72 174 119 44
81 39 203 -11 274 -28 40 -98 78 -158 85 -28 3 -53 11 -54 17 -2 6 -11 36 -21
66 -48 149 -97 209 -135 162 -20 -25 -22 -16 29 -162 30 -84 29 -110 -4 -110
-27 0 -146 -45 -244 -92 -82 -39 -106 -47 -113 -36 -5 7 -7 49 -5 93 5 98 27
146 121 264 36 45 70 99 76 119 24 87 4 152 -45 152 -31 0 -42 -17 -50 -79 -8
-59 -46 -111 -82 -111 -30 0 -82 38 -104 75 -27 45 -82 79 -114 71 -15 -4 -36
-24 -51 -49 -35 -55 -34 -54 -45 -37 -23 35 13 210 67 325 35 74 135 201 197
248 46 35 206 77 293 77 l60 0 -7 -57 c-14 -108 -10 -212 7 -238 20 -31 36
-31 68 -2 22 19 26 33 31 117 16 233 106 433 267 590 104 102 131 113 338 143
l85 12 28 52 c54 101 164 190 276 223 210 62 426 79 566 46 73 -17 135 -48
135 -66 0 -6 -20 -37 -44 -71 -24 -33 -61 -97 -82 -143 l-38 -83 -106 65
c-112 68 -193 112 -209 112 -19 0 -41 -32 -41 -61 0 -32 12 -41 152 -119 42
-24 94 -59 116 -80 l40 -36 -24 -93 c-13 -51 -24 -119 -24 -150 0 -32 -3 -60
-6 -64 -3 -3 -25 8 -48 24 -59 44 -101 60 -191 73 -92 14 -87 6 -105 150 -17
135 -49 178 -107 141 l-25 -17 3 -146 4 -145 -67 -34 c-41 -21 -89 -57 -125
-94 -31 -32 -61 -59 -66 -59 -4 0 -27 21 -50 47 -23 27 -57 62 -74 80 -18 17
-46 55 -62 85 -23 41 -36 54 -56 56 -36 5 -47 -9 -47 -55 1 -54 40 -124 105
-188 93 -91 106 -159 52 -267 -50 -99 -102 -134 -230 -152 -73 -10 -81 -14
-94 -40 -10 -21 -11 -34 -2 -52 24 -53 191 -20 317 62 54 36 96 88 139 174 70
139 148 239 226 289 70 44 112 54 203 49 93 -5 165 -36 229 -97 52 -49 65 -84
77 -214 6 -62 15 -148 20 -191 13 -110 46 -141 101 -97 l23 18 -19 251 c-16
215 -16 265 -6 354 16 132 37 237 63 313 23 68 118 252 157 305 14 19 29 39
33 45 4 5 28 34 53 63 25 29 45 59 45 66 0 7 -15 27 -34 43 -26 25 -35 41 -40
83 -8 61 -50 150 -70 150 -7 0 -19 -7 -26 -15 -11 -13 -10 -33 1 -108 17 -104
14 -108 -48 -81 -64 27 -194 53 -269 54 -71 0 -302 -31 -379 -51 -73 -20 -158
-50 -208 -75 -56 -29 -178 -149 -197 -194 -13 -32 -22 -36 -110 -44 -78 -7
-146 -30 -218 -73 -133 -81 -283 -262 -332 -403 -13 -36 -26 -68 -29 -72 -3
-4 -67 -8 -141 -9 -74 -1 -146 -6 -159 -11 -22 -8 -23 -6 -17 19 13 55 107
230 163 304 58 76 155 170 248 240 52 39 224 129 248 129 7 0 17 4 22 9 6 5
28 14 49 21 24 8 77 47 140 103 234 210 445 305 780 352 75 10 112 10 211 -2
132 -15 173 -12 225 19 63 37 117 45 202 27z m1103 -24 c65 -15 135 -44 135
-54 0 -3 -20 -18 -44 -32 -50 -31 -139 -134 -162 -187 -8 -20 -22 -68 -31
-106 -13 -58 -22 -74 -56 -105 -118 -104 -183 -190 -247 -325 -23 -47 -44 -86
-48 -86 -4 0 -20 9 -37 20 -34 22 -85 26 -103 8 -24 -24 -13 -54 37 -94 27
-21 54 -47 61 -57 6 -11 15 -79 20 -153 8 -140 22 -184 58 -184 48 1 59 37 71
245 7 109 14 157 35 219 55 162 188 319 331 391 l80 40 135 0 135 0 100 -50
c85 -42 113 -64 190 -141 49 -50 112 -108 139 -129 78 -61 106 -130 76 -186
-13 -23 -13 -23 92 -37 109 -14 176 -49 273 -144 47 -46 88 -78 100 -78 65 0
58 97 -13 173 l-26 27 43 0 c49 0 99 23 109 50 6 16 15 9 60 -43 95 -111 143
-254 124 -370 -11 -72 -7 -83 50 -127 63 -49 88 -83 115 -162 20 -58 24 -82
18 -127 -6 -57 -55 -254 -81 -326 -18 -52 -18 -69 1 -85 22 -18 61 -4 85 30
29 41 98 248 107 318 l6 55 25 -49 c48 -94 63 -169 72 -354 5 -96 15 -202 23
-235 31 -121 42 -285 28 -392 -37 -278 -174 -497 -366 -589 -91 -42 -140 -53
-244 -54 -86 0 -121 13 -121 46 0 25 -82 151 -146 225 -68 79 -77 103 -43 114
36 12 109 85 109 110 0 12 -11 32 -25 45 -27 26 -25 27 -102 -42 -84 -75 -224
-128 -338 -128 -97 0 -103 4 -94 53 4 23 9 47 9 52 1 6 9 -10 18 -35 25 -63
48 -64 57 -3 3 26 9 58 12 71 4 15 1 22 -10 22 -11 0 -18 -14 -23 -47 l-7 -48
-16 48 c-10 33 -20 47 -33 47 -14 0 -18 -8 -18 -32 0 -57 -16 -64 -29 -14 -11
44 -23 57 -36 36 -3 -5 3 -35 14 -67 11 -32 17 -60 15 -62 -2 -3 -46 6 -97 18
-156 39 -236 39 -426 -4 -91 -20 -167 -38 -170 -40 -13 -8 -183 24 -206 39
-49 32 -74 22 -168 -69 -92 -89 -167 -133 -295 -172 -69 -21 -225 -21 -320 0
-57 13 -64 12 -69 -2 -15 -49 -33 -65 -142 -122 -64 -34 -126 -70 -138 -82
-50 -45 -13 -97 59 -83 34 6 178 71 188 85 3 4 27 23 54 42 l48 34 132 0 c157
0 239 18 371 80 69 32 106 58 158 109 l68 67 64 -22 c55 -18 80 -21 162 -16
54 2 114 12 133 20 143 62 410 61 609 -3 74 -23 195 -27 244 -7 78 33 83 32
143 -25 57 -54 184 -211 184 -227 0 -5 -8 -8 -17 -6 -10 2 -184 9 -388 15
-443 14 -501 9 -865 -70 -25 -5 -115 -21 -200 -35 -272 -46 -360 -70 -515
-140 -46 -21 -281 -114 -366 -146 -89 -32 -295 -76 -401 -85 -177 -15 -413 62
-645 212 -156 101 -221 186 -283 372 -68 205 -63 326 19 496 38 78 50 92 208
238 92 86 189 173 215 193 129 98 299 145 521 145 117 0 274 18 308 36 50 25
71 18 109 -38 44 -64 140 -139 216 -168 108 -40 245 -36 349 9 64 28 159 114
203 183 48 77 80 176 89 274 5 61 2 84 -22 159 -58 182 -184 305 -354 345 -51
12 -167 9 -232 -6 -24 -5 -26 -2 -47 66 -12 40 -20 76 -17 80 8 12 104 38 159
43 52 5 66 17 66 58 0 35 -15 46 -75 53 -38 5 -66 1 -117 -17 -74 -26 -80 -23
-73 35 3 18 10 74 16 123 17 136 80 293 159 400 20 27 91 101 157 162 66 62
126 126 133 143 31 74 -30 82 -107 15 -28 -25 -54 -45 -58 -45 -16 0 8 89 40
146 38 68 131 159 185 182 19 7 49 20 65 27 88 39 198 46 310 20z m415 -152
c307 -87 467 -174 610 -330 92 -101 92 -98 29 -186 -30 -41 -62 -80 -71 -86
-20 -13 -73 26 -216 159 -155 144 -300 219 -463 239 -82 11 -196 2 -246 -19
-35 -15 -37 5 -6 62 34 63 90 120 158 160 56 32 95 32 205 1z m-915 -1448 c30
-14 80 -49 110 -77 58 -53 67 -75 16 -39 -67 48 -162 63 -246 40 -67 -19 -134
-79 -70 -63 35 9 83 -14 100 -47 36 -68 2 -136 -71 -146 -55 -7 -94 26 -104
88 l-7 44 -21 -45 c-26 -54 -28 -131 -7 -214 20 -76 53 -117 126 -156 49 -26
74 -33 123 -33 102 -2 201 57 238 141 27 59 34 47 9 -17 -46 -122 -101 -183
-210 -235 -57 -26 -77 -30 -151 -31 -77 0 -92 3 -152 33 -37 18 -88 53 -112
78 -56 55 -113 168 -127 251 -28 161 70 344 227 423 69 34 99 40 192 36 64 -3
94 -10 137 -31z m3695 -140 c17 -9 30 -17 30 -19 0 -3 3 -11 6 -19 3 -10 -13
-28 -51 -56 l-57 -40 -38 19 c-21 11 -41 23 -44 28 -9 15 31 68 65 85 42 21
53 21 89 2z m-208 -163 c40 -19 98 -85 98 -112 0 -10 -10 -30 -22 -45 -27 -34
-61 -31 -136 14 -62 37 -92 40 -92 11 0 -30 23 -70 64 -109 48 -47 61 -87 47
-153 -13 -56 -6 -68 36 -68 31 0 55 40 61 101 l5 50 26 -25 c14 -13 38 -28 54
-31 15 -4 27 -14 27 -22 0 -30 33 -84 61 -98 15 -8 54 -15 85 -15 l58 0 -28
-29 c-51 -53 -118 -81 -218 -92 -50 -5 -100 -6 -111 -3 -13 4 -29 -4 -53 -27
-29 -28 -37 -31 -56 -22 -35 16 -108 83 -129 116 -17 29 -17 30 8 68 l25 38
-26 65 c-30 75 -46 149 -46 214 0 58 42 153 78 175 36 22 135 22 184 -1z m392
-3 c31 -24 34 -62 6 -75 -26 -12 -220 -184 -220 -195 0 -12 -37 -12 -44 0 -3
4 4 17 16 27 32 29 61 101 54 138 -16 87 116 162 188 105z m-6943 -129 l60
-61 -22 -72 c-30 -101 -36 -218 -15 -291 l17 -57 -64 -66 c-57 -57 -67 -64
-85 -54 -27 15 -79 89 -99 143 -23 64 -23 218 1 288 21 63 126 230 143 230 3
0 31 -27 64 -60z m7053 -72 c28 -46 28 -77 2 -122 -25 -44 -56 -76 -56 -59 0
5 7 18 15 29 27 36 13 47 -21 17 -67 -61 -136 -87 -162 -61 -29 29 -13 64 64
142 65 65 81 76 110 76 24 0 38 -6 48 -22z m-6464 -775 c87 -48 148 -66 285
-88 55 -9 100 -17 101 -18 1 -1 -2 -22 -6 -47 -5 -25 -9 -71 -10 -102 l0 -58
-131 0 c-172 0 -320 23 -439 67 -94 35 -180 79 -180 91 1 25 148 152 221 192
45 24 56 27 69 16 8 -7 49 -31 90 -53z m-695 -518 c39 -12 55 -22 59 -38 3
-12 46 -57 95 -99 99 -85 132 -133 155 -223 22 -82 20 -102 -11 -131 -34 -32
-47 -27 -53 21 -6 48 -35 70 -69 52 -41 -21 -73 -155 -55 -224 7 -24 22 -32
21 -10 0 6 1 26 2 42 l3 30 13 -35 c7 -19 14 -48 14 -63 1 -34 -32 -102 -54
-111 -66 -25 -122 24 -149 132 -11 41 -24 72 -31 72 -25 0 -37 -31 -40 -97 -2
-58 -5 -68 -24 -76 -50 -23 -102 35 -122 136 -7 35 -18 61 -27 65 -18 6 -52
-32 -52 -58 0 -10 -7 -23 -15 -30 -32 -26 -95 64 -95 136 0 61 30 178 65 249
39 80 82 135 172 218 55 50 67 57 104 57 22 0 65 -7 94 -15z"/>
<path d="M5751 7422 c-54 -57 -73 -123 -75 -257 -1 -108 -3 -116 -27 -142 -30
-32 -98 -133 -124 -182 -13 -26 -15 -39 -7 -57 23 -49 94 -43 111 9 15 44 87
143 136 186 22 19 63 45 93 59 44 20 63 23 104 18 69 -9 153 -49 204 -96 64
-59 134 -54 134 9 0 33 -79 107 -157 148 -97 51 -227 68 -298 39 -32 -14 -34
-13 -41 7 -14 44 -3 122 26 186 35 74 35 75 14 95 -25 26 -55 19 -93 -22z"/>
<path d="M6407 7003 c-38 -6 -54 -46 -32 -79 13 -20 24 -24 68 -24 56 0 132
-30 191 -75 81 -62 149 7 74 75 -60 55 -205 115 -261 109 -7 -1 -25 -4 -40 -6z"/>
<path d="M7023 6783 c-16 -37 -15 -42 21 -183 46 -182 51 -237 33 -322 -22
-104 -85 -205 -198 -317 -87 -86 -98 -102 -113 -156 -37 -127 -129 -258 -272
-384 -51 -45 -95 -89 -98 -98 -10 -24 26 -57 53 -48 42 13 177 123 245 199 69
77 146 200 167 266 15 46 75 120 98 120 10 0 29 -17 43 -37 71 -110 95 -245
78 -431 -9 -103 -9 -117 6 -133 19 -22 67 -25 82 -6 14 17 42 193 42 266 0 69
-2 69 90 48 65 -15 80 -37 104 -153 25 -119 3 -213 -74 -321 -46 -65 -51 -98
-16 -114 79 -37 203 155 214 333 4 63 0 92 -23 170 -15 51 -29 100 -31 108 -3
9 10 25 31 39 38 26 45 54 21 86 -14 19 -15 19 -59 -3 -76 -38 -147 -49 -214
-32 l-57 15 -28 73 c-15 40 -46 99 -68 132 -22 32 -40 64 -40 70 0 6 18 42 40
79 77 133 116 272 107 381 -6 62 -38 179 -89 320 -20 57 -27 65 -51 68 -24 3
-30 -2 -44 -35z"/>
<path d="M6285 6721 c-78 -28 -108 -46 -169 -102 -105 -96 -171 -281 -147
-411 21 -117 49 -167 140 -259 71 -70 98 -90 153 -112 85 -34 156 -42 232 -28
161 30 290 144 346 306 27 77 27 219 2 302 -31 100 -99 193 -178 245 -38 25
-91 53 -118 62 -67 22 -196 21 -261 -3z m255 -90 c51 -19 126 -74 167 -121 27
-31 20 -40 -10 -13 -52 48 -108 68 -192 67 -82 0 -126 -14 -156 -50 -13 -15
-11 -16 26 -12 53 7 93 -14 111 -58 20 -47 0 -94 -50 -118 -58 -28 -120 5
-132 71 -9 45 -19 34 -34 -37 -32 -150 34 -290 153 -325 70 -21 153 -19 205 5
52 23 108 83 123 130 13 41 35 69 24 30 -42 -145 -100 -225 -200 -271 -108
-51 -193 -49 -313 7 -136 64 -231 249 -204 395 29 156 122 266 262 310 50 15
168 10 220 -10z"/>
<path d="M5871 5957 c-20 -47 -68 -93 -107 -103 -31 -8 -92 3 -121 22 -13 8
-32 32 -43 54 -26 51 -50 64 -78 44 -63 -44 8 -159 126 -204 63 -24 95 -25
150 -6 86 31 148 89 162 153 12 53 -3 83 -40 83 -27 0 -33 -6 -49 -43z"/>
<path d="M6884 5735 c-16 -25 -13 -55 6 -55 5 0 10 9 10 19 0 11 5 23 10 26 6
3 10 -1 10 -9 0 -23 21 -31 32 -12 11 19 34 21 41 4 6 -19 -8 -43 -38 -62 -25
-16 -27 -16 -39 -1 -16 23 -48 16 -63 -14 -14 -30 -1 -61 27 -61 10 0 32 -8
50 -17 30 -17 32 -17 45 1 17 22 19 54 6 75 -7 11 -4 18 12 26 26 12 35 59 16
81 -9 11 -22 14 -45 9 -18 -3 -35 -1 -39 5 -10 16 -23 12 -41 -15z m16 -120
c0 -8 -4 -15 -9 -15 -13 0 -22 16 -14 24 11 11 23 6 23 -9z m60 -19 c0 -8 -4
-17 -9 -21 -12 -7 -24 12 -16 25 9 15 25 12 25 -4z"/>
<path d="M4890 5489 c-76 -72 -129 -101 -236 -129 -91 -24 -272 -29 -278 -7
-36 120 -42 132 -62 135 -11 2 -31 -6 -44 -16 -22 -18 -23 -22 -12 -59 21 -70
16 -108 -18 -137 -17 -14 -50 -30 -73 -36 -23 -5 -62 -17 -87 -26 -25 -9 -69
-24 -99 -35 -98 -34 -171 -23 -285 45 -63 38 -132 46 -165 19 -35 -28 -23 -45
61 -91 97 -52 192 -104 197 -109 2 -1 -3 -11 -11 -20 -30 -36 -66 -110 -79
-163 -7 -30 -23 -72 -36 -92 -45 -73 -21 -130 42 -103 45 18 61 42 89 127 13
42 36 94 50 117 14 22 26 44 26 48 1 13 33 48 60 66 19 12 230 87 245 87 2 0
25 -37 51 -82 26 -46 54 -91 62 -100 20 -24 65 -23 87 2 19 21 18 23 -23 103
-23 45 -47 89 -54 98 -36 51 44 86 229 99 177 12 232 31 373 124 75 50 160
131 160 153 0 16 -26 30 -70 37 -32 5 -40 1 -100 -55z"/>
<path d="M6832 5523 c-35 -51 -35 -51 15 -78 26 -14 56 -31 65 -37 23 -16 35
-2 20 22 -6 11 -9 26 -6 35 10 26 -4 61 -31 73 -36 17 -41 15 -63 -15z m63
-23 c4 -6 4 -18 1 -26 -5 -12 -9 -12 -26 -2 -11 7 -20 18 -20 25 0 16 36 17
45 3z"/>
<path d="M6743 5392 l-40 -47 33 -40 c26 -30 37 -36 46 -27 9 9 5 19 -17 42
-22 23 -26 33 -17 42 9 9 18 6 40 -15 15 -15 31 -27 35 -27 16 0 5 28 -18 50
-34 32 -16 50 21 21 31 -25 44 -27 44 -7 0 17 -51 56 -72 56 -8 0 -33 -21 -55
-48z"/>
<path d="M6640 5295 c-7 -9 -10 -18 -7 -22 4 -3 13 0 22 7 11 10 15 10 15 0 0
-6 -9 -14 -20 -17 -26 -7 -25 -28 2 -47 29 -20 38 -20 67 3 24 18 24 19 7 55
-14 29 -23 36 -45 36 -16 0 -34 -7 -41 -15z m66 -53 c-8 -9 -19 -13 -22 -9
-10 9 16 38 28 31 6 -4 4 -13 -6 -22z"/>
<path d="M6454 5249 c-8 -14 11 -33 25 -25 11 7 4 36 -9 36 -5 0 -12 -5 -16
-11z"/>
<path d="M6542 5234 l-32 -14 20 -39 c20 -40 37 -57 46 -48 3 3 -2 19 -11 36
-15 30 -13 51 5 51 5 0 18 -16 30 -35 23 -38 40 -45 40 -17 0 24 -37 82 -52
81 -7 0 -28 -7 -46 -15z"/>
<path d="M6465 5198 c2 -7 9 -32 15 -55 7 -27 16 -43 26 -43 10 0 14 6 10 18
-3 9 -8 34 -12 55 -4 27 -11 37 -25 37 -10 0 -17 -5 -14 -12z"/>
<path d="M1365 7986 c-153 -37 -299 -166 -355 -313 -44 -116 -34 -298 22 -413
18 -36 31 -68 30 -72 -1 -5 3 -8 9 -8 6 0 30 -21 54 -48 23 -26 56 -54 71 -62
16 -8 31 -17 34 -20 3 -3 22 -16 42 -27 56 -33 145 -47 260 -40 90 5 109 9
176 42 92 46 195 145 236 228 74 149 74 333 0 480 -33 64 -149 179 -215 213
-100 50 -252 67 -364 40z m216 -103 c5 -80 -11 -111 -90 -184 -46 -42 -61 -62
-61 -83 0 -31 21 -76 44 -95 9 -8 16 -19 16 -27 0 -21 -88 70 -96 100 -11 46
4 71 81 140 57 52 77 77 85 107 6 22 8 44 5 49 -3 6 -1 10 4 10 6 0 11 -8 12
-17z m20 -173 c-58 -42 -69 -74 -42 -122 25 -44 26 -59 6 -98 -18 -35 -40 -41
-29 -8 4 14 -3 38 -22 73 -25 48 -27 55 -14 84 8 20 34 46 64 67 63 42 95 45
37 4z m159 -250 c11 -11 20 -24 20 -29 0 -30 -24 -61 -60 -80 -47 -25 -64 -23
-26 3 31 20 58 69 50 90 -3 8 -18 19 -32 25 l-27 9 28 1 c15 1 36 -8 47 -19z
m-419 -2 c-94 -26 70 -42 249 -23 l55 5 -35 -17 c-51 -25 -312 -25 -337 0 -16
15 -14 17 18 31 19 9 45 15 59 15 21 -1 20 -2 -9 -11z m162 -101 c89 2 117 -1
114 -10 -5 -17 -100 -29 -182 -24 -82 6 -105 14 -105 34 0 12 6 13 28 7 15 -5
80 -8 145 -7z m100 -96 c16 -16 -38 -26 -133 -26 -79 0 -137 15 -126 33 6 11
248 4 259 -7z m-317 -36 c-10 -8 -24 -16 -30 -18 -24 -9 6 -18 93 -29 130 -16
332 2 374 33 18 13 28 16 25 8 -15 -48 -228 -79 -419 -61 -103 10 -128 18
-129 44 0 6 76 36 95 37 6 0 1 -6 -9 -14z m484 -60 c-38 -37 -268 -66 -380
-48 -48 8 -37 10 80 11 127 1 250 19 290 42 22 14 26 12 10 -5z"/>
<path d="M8481 7767 c-82 -10 -149 -39 -231 -98 -73 -54 -106 -91 -144 -168
-106 -209 -71 -436 92 -601 112 -111 234 -157 397 -147 365 21 579 419 405
755 -36 70 -49 85 -125 149 -107 89 -249 129 -394 110z m-162 -405 c17 -54 35
-122 42 -150 6 -29 14 -52 18 -52 4 0 22 48 40 108 17 59 39 126 48 150 15 41
17 42 60 42 39 0 44 -2 38 -17 -4 -10 -25 -70 -46 -133 -21 -63 -49 -146 -62
-185 l-25 -70 -48 0 -49 0 -67 185 c-38 102 -71 193 -74 203 -5 15 2 17 45 17
l49 0 31 -98z m523 78 c64 -33 77 -103 28 -151 l-29 -30 22 -8 c35 -14 50 -38
51 -85 2 -84 -54 -116 -203 -116 l-100 0 1 200 c1 172 4 200 17 204 28 9 189
-2 213 -14z"/>
<path d="M8700 7340 l0 -50 38 0 c21 0 48 7 60 16 47 33 13 84 -56 84 l-42 0
0 -50z"/>
<path d="M8700 7175 l0 -55 48 0 c53 0 82 20 82 57 0 33 -32 53 -83 53 l-47 0
0 -55z"/>
<path d="M4165 2433 c-34 -8 -81 -50 -99 -88 -34 -72 3 -163 81 -197 119 -53
253 21 253 140 0 108 -109 175 -235 145z"/>
<path d="M2750 1696 l0 -626 388 0 c213 0 418 5 456 10 93 14 149 43 222 115
54 53 62 66 72 119 34 171 -18 307 -144 381 l-45 26 46 41 c53 47 77 90 94
171 11 51 10 68 -5 130 -16 65 -23 78 -78 132 -40 40 -77 66 -106 76 -25 9
-61 22 -80 29 -27 11 -127 15 -427 18 l-393 3 0 -625z m721 374 c62 -31 79
-55 79 -115 0 -61 -17 -88 -73 -117 -38 -20 -60 -23 -239 -26 l-198 -4 0 143
0 144 193 -1 c178 -2 197 -3 238 -24z m23 -495 c72 -21 98 -51 104 -119 5 -64
-19 -114 -65 -136 -34 -15 -202 -29 -370 -29 l-123 -1 0 150 0 150 201 0 c151
0 214 -4 253 -15z"/>
<path d="M6157 2241 c-21 -44 -37 -82 -37 -85 0 -4 -28 -64 -61 -134 -34 -70
-78 -167 -99 -217 -21 -49 -70 -162 -109 -250 -40 -88 -95 -212 -123 -275 -28
-63 -60 -131 -70 -150 -31 -59 -32 -59 128 -62 136 -3 147 -2 160 17 8 11 14
25 14 32 0 7 19 58 42 113 l43 100 296 0 296 0 18 -42 c10 -24 31 -74 48 -113
16 -38 32 -77 37 -85 10 -20 325 -28 317 -8 -9 23 -139 312 -172 383 -18 39
-52 113 -75 165 -23 52 -68 151 -100 220 -69 147 -194 427 -203 453 -6 15 -23
17 -160 17 l-154 0 -36 -79z m229 -311 c14 -36 37 -94 51 -130 13 -36 42 -103
64 -149 21 -46 39 -85 39 -87 0 -2 -90 -4 -200 -4 l-200 0 29 63 c61 130 110
245 135 316 33 93 38 100 47 75 4 -10 20 -48 35 -84z"/>
<path d="M7198 1713 c-2 -335 -2 -616 0 -625 4 -16 19 -18 148 -18 l144 0 0
625 0 625 -144 0 -144 0 -4 -607z"/>
<path d="M4935 2021 c-71 -17 -190 -86 -245 -141 -201 -201 -180 -547 44 -717
114 -86 225 -118 376 -110 162 10 265 53 360 148 216 218 162 622 -101 757
-116 59 -170 72 -293 71 -61 -1 -125 -4 -141 -8z m218 -232 c50 -12 122 -74
142 -122 18 -45 28 -175 16 -216 -29 -96 -123 -166 -223 -165 -80 1 -140 27
-187 80 -49 56 -66 118 -56 214 16 161 147 250 308 209z"/>
<path d="M4085 2011 c-3 -6 -3 -117 0 -248 3 -131 5 -340 5 -465 l0 -228 140
0 140 0 0 475 0 475 -139 0 c-77 0 -142 -4 -146 -9z"/>
<path d="M5459 811 c-101 -33 -138 -93 -109 -177 12 -34 79 -79 131 -87 60 -9
115 -40 111 -62 -5 -28 -20 -35 -78 -35 -34 0 -66 8 -99 25 -27 13 -49 23 -50
22 0 -1 -8 -19 -17 -39 -21 -46 -12 -58 63 -83 63 -21 195 -16 230 8 39 28 59
69 59 123 0 72 -32 98 -155 124 -79 17 -112 65 -63 91 26 14 117 6 147 -12 25
-16 36 -7 44 38 6 28 3 34 -25 48 -37 18 -152 28 -189 16z"/>
<path d="M2840 666 c0 -106 4 -157 16 -194 9 -28 20 -50 23 -49 3 1 23 -11 43
-26 104 -80 283 -31 315 86 10 35 15 217 8 275 l-6 52 -49 0 -49 0 -3 -156 -3
-156 -28 -24 c-39 -33 -78 -31 -122 7 l-35 31 0 149 0 149 -55 0 -55 0 0 -144z"/>
<path d="M3330 590 l0 -220 56 0 55 0 -2 118 c-1 64 2 119 7 121 4 2 38 -34
74 -81 101 -132 125 -156 162 -163 59 -10 59 -10 56 226 l-3 214 -52 3 -53 3
0 -126 0 -127 -32 40 c-18 21 -64 78 -101 126 l-68 86 -50 0 -49 0 0 -220z"/>
<path d="M3837 803 c-3 -5 -6 -104 -6 -220 l-2 -213 55 0 56 0 0 204 c0 112 3
211 6 220 5 13 -3 16 -49 16 -31 0 -58 -3 -60 -7z"/>
<path d="M3980 808 c0 -5 105 -256 145 -350 l38 -88 53 0 53 0 27 58 c15 31
56 125 91 207 35 83 67 156 70 163 4 9 -9 12 -49 12 -49 0 -55 -2 -65 -27 -29
-72 -121 -274 -127 -280 -3 -3 -6 1 -6 10 0 18 -71 199 -101 260 -19 36 -21
37 -74 37 -30 0 -55 -1 -55 -2z"/>
<path d="M4498 593 c-2 -120 -3 -219 -3 -220 1 -2 312 -6 333 -4 7 1 12 16 12
41 l0 40 -120 0 -120 0 0 48 0 49 100 -5 100 -5 0 47 0 46 -100 0 -100 0 0 45
0 45 115 0 115 0 0 45 0 45 -164 0 -164 0 -4 -217z"/>
<path d="M4910 590 l0 -220 23 -2 c12 0 34 -2 50 -3 27 -2 27 -2 27 61 l0 64
50 0 c46 0 52 -3 63 -27 7 -16 23 -43 36 -60 23 -31 29 -33 84 -33 l59 0 -46
64 c-25 36 -46 68 -46 71 0 4 12 16 26 28 37 28 54 74 48 128 -9 77 -22 97
-80 124 -47 22 -65 25 -173 25 l-121 0 0 -220z m249 104 c27 -34 27 -62 -1
-91 -18 -19 -32 -23 -85 -23 l-63 0 0 70 0 70 64 0 c58 0 67 -3 85 -26z"/>
<path d="M5868 743 c-49 -124 -115 -277 -137 -320 -11 -23 -21 -45 -21 -48 0
-3 25 -5 55 -5 l55 0 21 45 21 45 98 0 98 0 17 -51 c12 -37 21 -49 32 -45 8 3
34 6 58 6 l44 0 -39 83 c-67 143 -127 281 -139 320 l-13 37 -62 0 -62 0 -26
-67z m120 -126 c12 -33 22 -63 22 -68 0 -10 -103 -13 -112 -3 -4 3 8 37 25 75
16 38 33 66 37 62 4 -4 16 -34 28 -66z"/>
<path d="M6250 591 l0 -219 149 -7 c82 -4 154 -4 160 -1 6 4 11 26 11 49 l0
42 -107 0 -108 0 0 65 c0 36 -1 116 -3 178 l-2 112 -50 0 -50 0 0 -219z"/>
<path d="M6928 788 c-8 -13 -19 -34 -23 -48 -4 -14 -43 -102 -85 -197 -85
-187 -85 -183 -4 -175 37 3 43 8 60 45 l19 42 96 3 96 3 19 -43 c10 -24 23
-46 28 -50 9 -6 104 -3 112 4 1 2 -10 30 -27 62 -49 98 -147 319 -154 349 -7
26 -10 27 -65 27 -49 0 -60 -3 -72 -22z m103 -172 c16 -37 29 -70 29 -72 0 -2
-29 -4 -65 -4 -36 0 -65 3 -65 7 0 18 56 142 63 140 5 -1 22 -33 38 -71z"/>
<path d="M7283 590 l2 -220 53 0 c50 0 52 1 52 28 1 15 3 72 6 127 3 55 3 142
-1 193 l-7 92 -54 0 -54 0 3 -220z"/>
</g>
</svg>
