<?xml version="1.0" standalone="no"?>
<!DOCTYPE svg PUBLIC "-//W3C//DTD SVG 20010904//EN"
 "http://www.w3.org/TR/2001/REC-SVG-20010904/DTD/svg10.dtd">
<svg version="1.0" xmlns="http://www.w3.org/2000/svg"
 width="1024.000000pt" height="1024.000000pt" viewBox="0 0 1024.000000 1024.000000"
 preserveAspectRatio="xMidYMid meet">

<g transform="translate(0.000000,1024.000000) scale(0.100000,-0.100000)"
fill="#000000" stroke="none">
<path d="M1104 9252 c-12 -9 -27 -27 -33 -39 -8 -16 -11 -902 -11 -3287 l0
-3264 26 -31 26 -31 2897 0 c2747 0 2899 1 2913 17 26 29 30 60 14 91 -8 16
-21 32 -28 34 -7 3 -336 4 -730 3 l-718 -1 0 238 c0 190 -3 245 -15 267 -23
46 -91 46 -115 2 -6 -13 -11 -111 -13 -261 l-2 -239 -185 -6 c-102 -4 -224 -3
-272 0 l-88 7 0 474 0 473 35 63 c47 87 99 234 146 415 21 83 39 154 39 157 0
10 144 72 216 94 38 12 127 30 196 42 144 23 109 31 278 -66 209 -119 413
-276 601 -463 305 -304 513 -614 688 -1026 37 -88 75 -181 85 -207 42 -114
127 -137 276 -75 269 111 603 379 626 503 14 75 -44 160 -131 193 -94 35 -168
43 -253 25 -68 -14 -152 -48 -209 -84 -12 -8 -23 -12 -25 -10 -2 3 -40 80 -86
171 -113 225 -242 428 -392 615 -134 168 -366 401 -476 480 -36 25 -63 48 -62
50 2 2 114 -2 248 -8 135 -6 344 -11 465 -11 207 -1 225 1 302 24 106 33 180
78 268 164 75 74 136 167 180 278 30 73 22 69 145 82 84 9 266 63 356 106 105
50 227 142 317 241 l72 79 80 3 c85 4 174 31 234 72 39 26 201 200 230 247 11
19 28 62 36 96 15 56 15 66 1 115 -11 38 -27 63 -52 85 -28 26 -37 42 -44 86
-5 30 -17 68 -26 84 -19 32 -89 81 -115 81 -11 0 -28 20 -45 50 -43 80 -129
127 -209 114 -57 -9 -129 -50 -176 -101 -34 -37 -45 -43 -79 -43 -52 0 -137
-39 -177 -81 -53 -56 -85 -141 -91 -239 -4 -76 -1 -96 27 -179 l32 -94 -23
-26 c-53 -59 -126 -122 -170 -146 -55 -30 -229 -77 -241 -65 -16 15 -47 225
-47 320 0 334 -105 588 -327 794 -45 41 -53 54 -53 85 0 49 -25 161 -50 230
-43 116 -121 232 -213 319 -77 72 -91 71 -181 -23 -66 -69 -75 -75 -112 -75
-34 0 -170 32 -181 43 -2 3 35 62 82 132 95 144 114 189 95 226 -20 37 -124
171 -156 200 -122 112 -296 210 -489 275 -60 20 -116 42 -122 47 -10 7 -13 87
-13 338 l0 329 249 0 c236 0 250 1 275 21 33 26 36 77 5 105 -20 18 -88 19
-2602 19 -2165 0 -2587 -3 -2615 -14 -67 -28 -62 241 -62 -3146 l0 -3076 -72
3 -73 3 -3 3193 -2 3192 2870 0 2871 0 24 25 c33 32 32 68 -1 94 l-27 21
-2906 0 c-2738 0 -2907 -1 -2927 -18z m776 -984 c0 -310 0 -786 0 -1058 l0
-495 -40 -80 c-22 -44 -52 -125 -66 -180 -26 -100 -28 -174 -8 -298 4 -26 0
-51 -14 -85 -34 -80 -55 -208 -49 -293 9 -117 72 -279 139 -355 l29 -33 -65
-133 c-67 -137 -115 -275 -136 -388 -10 -53 -20 -72 -51 -105 -21 -22 -58 -71
-83 -108 l-45 -69 4 2114 c2 1162 4 2116 4 2121 1 4 87 7 191 7 l190 0 0 -562z
m690 -26 l0 -588 -49 -37 c-80 -61 -213 -197 -265 -271 -59 -83 -137 -233
-165 -319 -22 -66 -46 -107 -62 -107 -5 0 -9 363 -9 955 l0 955 275 0 275 0 0
-588z m680 220 l0 -368 -62 -44 c-34 -24 -99 -79 -144 -122 -69 -66 -93 -83
-167 -113 -48 -19 -105 -44 -127 -55 l-40 -20 0 545 0 545 270 0 270 0 0 -368z
m670 108 c0 -143 1 -263 3 -267 1 -5 -29 -11 -67 -15 -139 -14 -411 -86 -453
-120 -10 -8 -13 58 -13 326 l0 336 265 0 265 0 0 -260z m699 46 c0 -194 -1
-215 -17 -220 -9 -3 -55 -14 -102 -25 -47 -11 -131 -35 -187 -54 -93 -32 -108
-34 -175 -29 l-73 7 -3 268 -2 267 279 0 279 0 1 -214z m676 97 c6 -97 0 -352
-9 -360 -2 -2 -38 6 -81 17 -124 32 -247 50 -352 53 l-98 3 -3 202 -2 202 269
0 269 0 7 -117z m665 -197 l0 -315 -32 11 c-18 6 -37 14 -43 18 -18 13 -169
67 -222 80 -28 6 -91 15 -140 18 l-88 7 -3 248 -2 247 265 0 265 0 0 -314z
m-872 -266 c50 -13 92 -26 92 -29 0 -4 -12 -14 -27 -23 -45 -27 -123 -109
-153 -161 l-27 -48 -39 67 c-47 81 -134 164 -200 190 l-49 19 55 7 c98 11 250
2 348 -22z m-556 -51 c79 -16 193 -76 245 -128 59 -59 101 -147 112 -238 11
-87 2 -141 -32 -190 -14 -21 -55 -81 -91 -133 -42 -61 -76 -126 -97 -182 l-31
-87 -37 40 c-49 50 -83 52 -109 3 -9 -17 -2 -33 47 -105 52 -77 77 -137 115
-274 4 -15 -2 -24 -22 -36 -80 -46 -55 -167 27 -126 l28 14 17 -59 17 -60 -68
-63 c-127 -118 -169 -223 -161 -407 l4 -107 -55 -21 c-48 -19 -87 -23 -266
-30 -124 -5 -231 -14 -262 -23 l-52 -14 -15 51 c-23 81 -35 161 -46 301 -14
197 -59 349 -105 361 -57 14 -74 -15 -56 -95 7 -31 18 -86 26 -122 8 -36 21
-139 29 -230 9 -90 22 -190 29 -221 17 -67 22 -60 -93 -137 -41 -28 -113 -82
-160 -120 l-85 -69 -3 519 c-2 507 -2 520 18 560 66 129 226 220 359 205 124
-14 255 -113 280 -212 7 -26 18 -121 25 -211 11 -131 17 -167 31 -183 23 -25
46 -25 75 -2 l23 19 -18 242 c-16 206 -17 261 -7 360 13 132 49 290 87 383 37
90 127 237 196 320 32 39 59 77 59 85 0 26 -20 53 -40 53 -21 0 -25 11 -35 85
-9 72 -34 145 -50 145 -23 0 -47 -31 -41 -54 12 -45 30 -166 25 -170 -3 -3
-45 9 -94 26 -124 43 -310 50 -491 20 -135 -23 -287 -69 -351 -106 l-43 -25 0
128 0 128 96 42 c214 95 442 128 679 100 l93 -11 79 36 c84 38 113 42 195 25z
m1103 -24 c71 -18 135 -45 135 -57 0 -4 -7 -8 -16 -8 -24 0 -145 -127 -176
-186 -15 -28 -35 -82 -44 -120 -19 -85 -17 -81 -91 -143 -72 -59 -147 -160
-205 -276 -55 -109 -52 -106 -95 -84 -64 33 -113 21 -113 -27 0 -15 16 -34 50
-59 28 -20 56 -47 62 -58 7 -13 15 -81 18 -160 5 -131 6 -140 29 -158 68 -55
92 4 110 276 11 157 25 205 91 312 100 163 226 255 395 290 115 23 198 10 323
-52 80 -40 109 -62 186 -139 50 -51 111 -105 135 -121 58 -39 80 -84 62 -128
-7 -18 -15 -44 -18 -59 -6 -29 -7 -29 138 -42 98 -10 174 -52 269 -151 63 -65
84 -78 109 -70 47 14 43 82 -8 146 l-30 37 49 12 c33 8 58 22 74 41 l24 28 61
-77 c92 -115 136 -259 114 -370 -9 -48 -8 -53 16 -80 14 -16 45 -44 68 -61 26
-20 52 -53 70 -89 25 -50 28 -68 27 -147 -1 -77 -7 -112 -47 -242 -26 -84 -47
-161 -47 -172 0 -46 64 -52 92 -9 26 40 89 221 108 308 l18 85 20 -47 c56
-128 83 -269 80 -423 -1 -59 6 -128 21 -200 30 -146 37 -275 21 -372 -44 -274
-179 -492 -357 -576 -94 -44 -166 -59 -270 -55 l-78 3 -44 83 c-24 45 -70 112
-103 149 -32 36 -58 71 -58 76 0 6 -7 18 -15 27 -13 14 -8 21 45 69 67 58 82
91 55 121 -28 31 -49 24 -115 -34 -40 -36 -87 -66 -138 -87 -67 -28 -91 -33
-190 -37 l-112 -5 6 34 c14 88 15 88 33 39 9 -25 24 -46 33 -48 13 -3 17 10
23 73 7 71 3 97 -11 82 -4 -4 -9 -30 -12 -59 l-5 -53 -17 50 c-9 28 -23 50
-30 50 -8 0 -19 -20 -25 -50 l-12 -50 -13 48 c-7 27 -17 46 -24 44 -15 -6 -9
-53 14 -105 l20 -43 -33 6 c-17 4 -59 15 -92 25 -133 40 -267 35 -470 -17
-134 -34 -260 -30 -328 11 -25 14 -51 26 -57 26 -6 0 -47 -38 -91 -84 -113
-118 -240 -179 -401 -194 -69 -7 -98 -5 -230 13 l-57 8 -14 -36 c-12 -28 -33
-46 -109 -90 -51 -30 -110 -60 -131 -67 -42 -13 -61 -41 -53 -76 17 -68 152
-26 315 98 50 37 71 48 90 44 95 -19 164 -17 263 4 124 26 174 45 266 99 64
37 116 85 140 127 9 17 12 17 48 1 101 -44 215 -41 384 9 86 26 109 29 240 29
127 0 158 -4 250 -28 146 -39 226 -43 319 -18 l74 20 55 -47 c62 -53 204 -224
194 -233 -4 -3 -74 -2 -157 3 -82 5 -289 9 -460 11 l-310 2 -225 -47 c-124
-26 -283 -57 -355 -68 -206 -34 -315 -65 -524 -152 -391 -162 -514 -197 -728
-205 -123 -5 -154 -3 -237 16 -108 25 -324 127 -441 208 l-70 48 -3 490 -2
489 82 84 c96 96 213 194 267 222 47 23 149 58 210 71 25 5 147 15 271 23 169
11 239 19 280 34 l55 19 35 -49 c36 -50 131 -133 185 -161 62 -31 157 -49 237
-45 105 6 206 55 293 143 112 111 170 281 148 429 -30 204 -160 361 -344 417
-57 17 -86 20 -152 16 -45 -3 -94 -9 -109 -12 -25 -7 -27 -4 -43 52 -9 32 -18
65 -21 74 -6 23 47 46 137 59 40 6 77 16 81 23 16 26 9 76 -14 88 -28 15 -121
5 -187 -20 -28 -10 -54 -15 -57 -10 -8 13 14 193 32 263 27 104 83 229 133
297 27 36 97 110 157 163 152 136 181 181 133 207 -27 14 -49 5 -107 -45 -24
-20 -48 -36 -52 -36 -15 0 37 137 68 182 65 94 161 161 281 194 64 17 185 17
256 -1z m360 -140 c187 -39 418 -132 528 -214 65 -48 206 -198 213 -227 4 -16
-11 -43 -57 -103 -34 -44 -66 -81 -72 -81 -16 0 -88 61 -208 175 -94 90 -131
119 -200 153 -194 95 -305 109 -512 65 l-28 -6 15 36 c32 78 113 163 190 201
39 19 41 19 131 1z m-2750 -402 c-7 -66 -14 -73 -81 -73 -51 0 -201 -56 -260
-96 -70 -49 -203 -187 -250 -260 -20 -32 -48 -85 -61 -118 -38 -93 -35 -92
-181 -100 -70 -3 -140 -9 -155 -12 l-28 -6 21 51 c124 316 357 539 700 671 75
30 93 42 189 134 l106 101 3 -115 c2 -63 0 -143 -3 -177z m850 158 c80 -10
173 -39 208 -65 17 -13 16 -17 -23 -68 -23 -29 -61 -95 -86 -145 -25 -51 -47
-93 -49 -93 -3 0 -29 16 -59 35 -70 45 -230 125 -250 125 -31 0 -46 -13 -46
-40 0 -35 33 -64 145 -127 46 -25 101 -63 121 -84 l37 -38 -22 -118 c-11 -66
-21 -133 -21 -149 0 -42 -8 -47 -41 -23 -56 40 -159 79 -226 87 l-67 7 -13
114 c-14 126 -34 174 -73 179 -33 4 -62 -19 -62 -49 0 -13 3 -79 7 -146 l8
-121 -54 -27 c-30 -15 -75 -42 -101 -61 l-47 -33 6 317 c5 253 9 322 21 339
25 39 126 99 213 126 122 38 190 49 379 66 8 0 51 -3 95 -8z m-845 -598 l-1
-248 -59 63 c-33 34 -60 71 -60 80 0 27 -37 62 -65 62 -36 0 -47 -29 -35 -87
14 -61 41 -103 79 -126 41 -24 66 -62 86 -131 35 -122 -13 -235 -125 -291 -19
-10 -71 -23 -115 -30 -70 -10 -82 -14 -94 -37 -12 -21 -13 -31 -3 -52 10 -23
18 -26 59 -26 99 0 217 46 287 110 l46 43 0 -318 0 -317 -58 54 c-110 101
-226 167 -262 148 -38 -21 -33 -103 7 -116 115 -39 210 -120 277 -234 29 -49
36 -71 36 -113 0 -46 -5 -58 -41 -102 -47 -57 -87 -122 -110 -180 -9 -22 -21
-40 -25 -40 -121 3 -269 35 -333 73 -49 28 -52 24 43 57 101 36 156 120 156
236 0 118 -81 209 -199 226 l-54 8 -17 62 c-9 34 -30 88 -46 120 -27 54 -32
58 -63 58 -54 0 -59 -21 -23 -107 38 -92 50 -156 31 -162 -105 -30 -201 -67
-278 -107 -52 -27 -96 -49 -99 -49 -2 0 -3 44 0 98 4 114 22 153 120 274 76
93 78 96 85 173 5 54 3 69 -12 85 -36 40 -85 20 -85 -34 0 -59 -19 -105 -50
-121 -57 -30 -92 -12 -161 81 -35 47 -44 54 -74 54 -30 0 -40 -7 -72 -51 l-38
-50 -3 80 c-3 97 26 197 90 305 51 86 161 200 219 225 87 38 288 66 303 42 3
-5 2 -32 -4 -60 -5 -28 -11 -89 -12 -135 -3 -95 7 -116 54 -116 39 0 53 37 62
155 10 152 66 312 154 442 46 68 148 173 205 211 49 33 148 60 220 61 l57 1 0
-247z m1843 -604 c34 -11 78 -32 97 -46 46 -34 120 -105 120 -115 0 -5 -10 0
-22 12 -48 44 -109 65 -193 65 -67 0 -87 -4 -124 -25 -53 -30 -63 -48 -24 -43
47 7 82 -13 102 -58 31 -69 -1 -126 -77 -136 -54 -7 -102 34 -105 90 -2 32 -4
35 -15 20 -19 -26 -32 -82 -32 -139 0 -147 88 -260 224 -285 107 -19 218 34
276 133 24 42 29 47 24 23 -11 -52 -67 -148 -112 -193 -24 -24 -73 -58 -110
-75 -59 -28 -78 -32 -152 -32 -76 0 -93 4 -150 32 -90 44 -150 105 -196 199
-38 76 -39 80 -39 188 0 99 3 117 26 166 89 187 297 281 482 219z m3730 -150
c14 -6 30 -22 36 -35 9 -21 7 -26 -22 -47 -79 -59 -79 -59 -120 -31 -44 30
-46 42 -9 76 51 48 75 55 115 37z m-196 -171 c84 -39 117 -114 72 -159 -28
-28 -72 -21 -140 20 -27 17 -58 31 -69 31 -40 0 -18 -71 40 -125 53 -50 62
-77 50 -142 -8 -47 -7 -60 4 -71 36 -37 96 24 96 98 l0 31 28 -20 c16 -11 39
-22 53 -26 18 -4 28 -18 39 -52 21 -66 55 -88 131 -86 l61 1 -28 -29 c-16 -16
-53 -42 -84 -57 -47 -23 -70 -27 -160 -30 -102 -4 -106 -5 -138 -35 l-32 -31
-36 19 c-40 21 -124 110 -124 131 0 7 9 29 21 48 l21 35 -31 79 c-105 273 15
469 226 370z m387 1 c42 -33 35 -63 -26 -102 -29 -19 -66 -47 -83 -64 -82 -82
-125 -115 -141 -109 -15 6 -14 10 9 34 38 39 59 98 53 141 -7 42 9 67 64 100
45 27 90 27 124 0z m-6960 -112 c22 -24 52 -51 65 -59 l23 -16 -28 -69 c-32
-80 -43 -210 -25 -303 l12 -59 -65 -65 -65 -65 -32 37 c-78 88 -112 232 -85
361 9 41 25 92 37 115 24 47 107 166 116 166 3 0 24 -19 47 -43z m7066 -92
c30 -32 24 -100 -15 -151 -30 -40 -47 -39 -21 2 28 42 12 39 -57 -10 -85 -61
-137 -60 -137 2 0 45 140 182 185 182 12 0 32 -11 45 -25z m-5872 -1183 l-3
-157 -32 95 c-67 200 -66 309 5 480 l27 65 3 -163 c1 -90 1 -234 0 -320z
m-660 449 c89 -62 217 -106 357 -122 l103 -12 -5 -101 c-3 -56 -10 -105 -15
-111 -14 -15 -260 -9 -368 9 -52 9 -135 30 -184 47 -90 30 -196 83 -196 98 0
16 128 130 190 170 72 46 81 48 118 22z m-120 -441 l102 -33 0 -1059 0 -1059
-275 3 -275 3 0 558 0 557 38 0 c25 0 56 11 92 33 66 39 108 111 117 200 4 38
10 57 19 57 22 0 96 72 111 107 51 123 -42 355 -190 473 l-64 51 9 52 c5 29
18 80 30 113 l21 61 81 -42 c44 -24 127 -58 184 -75z m497 -69 l100 -1 13 -52
c15 -67 79 -198 129 -264 l38 -51 -3 -850 -2 -850 -160 -8 c-88 -4 -207 -4
-265 0 l-105 7 0 1042 0 1042 78 -8 c42 -3 122 -7 177 -7z m-992 -47 c33 -11
47 -21 47 -34 0 -10 28 -40 64 -70 131 -104 186 -187 202 -308 6 -46 4 -53
-19 -76 -37 -37 -57 -34 -57 9 0 46 -30 78 -62 66 -48 -17 -86 -180 -58 -246
7 -17 9 -16 10 10 1 17 5 39 10 50 7 19 9 18 19 -8 20 -52 14 -110 -16 -145
-65 -75 -138 -41 -174 81 -26 87 -34 97 -57 74 -12 -13 -17 -36 -19 -84 -1
-42 -6 -69 -15 -74 -47 -30 -101 20 -127 119 -10 40 -22 76 -25 80 -12 11 -39
-13 -50 -46 -15 -42 -27 -52 -53 -41 -52 20 -75 131 -49 240 33 142 105 260
218 358 64 56 73 61 117 61 26 0 68 -7 94 -16z m1461 -473 c112 -77 349 -172
481 -193 17 -3 20 -12 23 -71 l4 -68 -50 25 c-77 39 -136 51 -182 37 -53 -16
-125 -91 -150 -158 -11 -30 -29 -71 -39 -91 -55 -108 -105 -294 -115 -427 -7
-97 5 -151 43 -188 27 -28 38 -32 102 -35 65 -4 76 -2 144 32 82 40 172 128
208 202 11 24 24 44 29 44 4 0 6 -149 5 -331 l-2 -332 -277 -2 -278 -3 0 794
c0 437 3 794 6 794 3 0 25 -13 48 -29z m1002 -183 c-18 -91 -98 -213 -160
-242 -45 -21 -74 -20 -141 5 l-55 20 0 94 c0 105 -1 105 83 106 29 0 95 11
147 24 134 32 134 32 126 -7z m-2851 -105 c35 -4 50 -13 70 -39 38 -49 98 -78
167 -78 l58 -1 0 -575 0 -576 -192 2 -193 2 -1 651 0 651 23 -15 c12 -9 43
-18 68 -22z m3040 -1261 c-4 -11 -58 -12 -277 -8 -150 3 -272 8 -270 11 1 3 2
155 2 339 l0 334 53 -14 c77 -21 232 -18 298 5 68 23 125 52 164 85 l30 24 3
-381 c1 -210 0 -388 -3 -395z"/>
<path d="M5790 7453 c-70 -25 -110 -132 -110 -290 l0 -105 -45 -52 c-66 -77
-115 -164 -115 -203 0 -27 5 -35 26 -44 41 -15 60 -3 88 54 30 62 112 156 170
196 111 77 254 56 368 -54 31 -29 56 -45 73 -45 25 0 65 31 65 50 0 53 -112
145 -217 181 -76 26 -221 31 -261 10 -20 -11 -23 -9 -33 16 -14 37 2 126 35
192 30 59 31 65 10 85 -16 16 -28 18 -54 9z"/>
<path d="M6392 7003 c-24 -9 -34 -53 -18 -78 12 -18 27 -23 80 -28 77 -7 144
-34 192 -77 41 -35 48 -36 74 -10 27 27 25 43 -12 85 -64 74 -247 136 -316
108z"/>
<path d="M7031 6806 c-24 -29 -23 -80 4 -161 102 -309 67 -463 -156 -687 -80
-81 -99 -106 -108 -144 -28 -110 -119 -241 -262 -377 -60 -57 -109 -111 -109
-119 0 -8 6 -23 14 -33 13 -18 16 -18 72 16 78 45 272 238 311 309 16 30 43
84 58 120 33 76 81 132 109 128 30 -4 92 -128 110 -220 19 -90 20 -162 6 -276
-11 -89 -5 -116 30 -127 29 -9 57 10 69 47 14 45 31 178 31 242 l0 52 61 -7
c92 -11 122 -51 144 -195 14 -89 -29 -219 -100 -301 -39 -45 -43 -64 -19 -87
26 -27 61 -19 107 24 72 66 127 208 127 330 0 62 -24 170 -49 219 -12 23 -18
41 -13 41 14 0 72 59 72 73 0 8 -8 25 -18 37 l-17 21 -55 -28 c-47 -24 -65
-28 -135 -27 -45 1 -90 6 -101 12 -11 6 -27 34 -37 65 -10 30 -40 90 -69 133
l-51 78 18 30 c107 183 146 327 126 468 -9 68 -77 292 -101 339 -12 22 -52 25
-69 5z"/>
<path d="M6341 6739 c-123 -24 -261 -129 -324 -247 -77 -142 -68 -335 21 -464
49 -71 146 -156 214 -188 207 -97 463 0 563 212 116 246 23 534 -209 644 -104
49 -175 61 -265 43z m231 -121 c54 -25 155 -114 143 -126 -3 -3 -15 4 -28 15
-62 57 -168 77 -254 49 -28 -9 -58 -25 -67 -35 -15 -16 -14 -17 13 -13 67 10
132 -64 110 -127 -21 -60 -116 -82 -158 -37 -13 14 -27 40 -31 58 l-7 33 -13
-30 c-22 -53 -24 -156 -5 -215 47 -142 225 -213 362 -145 57 29 93 70 123 142
l20 48 -6 -40 c-19 -115 -102 -223 -208 -271 -50 -22 -76 -28 -141 -28 -71 -1
-88 3 -147 32 -141 69 -223 201 -223 357 0 69 4 89 31 145 73 155 177 221 339
217 73 -2 101 -7 147 -29z"/>
<path d="M5871 5958 c-10 -24 -33 -56 -51 -73 -27 -26 -39 -30 -89 -30 -48 0
-64 5 -94 28 -20 15 -37 35 -37 43 0 25 -47 65 -67 57 -25 -9 -33 -23 -33 -59
0 -80 121 -169 230 -169 108 0 204 70 231 167 13 51 -1 78 -42 78 -25 0 -32
-6 -48 -42z"/>
<path d="M6897 5783 c-3 -5 -7 -21 -8 -38 -3 -22 0 -31 13 -33 15 -3 17 2 12
27 -5 24 -3 31 10 31 9 0 16 -8 16 -20 0 -21 24 -27 36 -9 10 16 26 -5 18 -24
-3 -9 -10 -17 -15 -17 -5 0 -9 -7 -9 -15 0 -22 28 -18 40 5 19 35 9 75 -20 78
-14 2 -29 8 -34 13 -12 11 -53 12 -59 2z"/>
<path d="M6851 5662 c-13 -25 3 -49 46 -67 50 -21 72 -19 85 9 15 35 5 53 -39
65 -55 16 -81 13 -92 -7z m53 -10 c2 -4 1 -14 -4 -22 -7 -11 -12 -12 -21 -3
-6 6 -8 16 -5 22 8 13 23 14 30 3z m54 -29 c-4 -22 -22 -20 -26 1 -2 10 3 16
13 16 10 0 15 -7 13 -17z"/>
<path d="M6821 5546 c-28 -44 -27 -52 9 -65 17 -5 45 -20 61 -32 21 -15 34
-18 41 -11 7 7 3 14 -11 22 -19 10 -20 13 -6 26 22 23 18 50 -11 73 -38 30
-59 26 -83 -13z m64 -10 c17 -12 16 -46 -2 -46 -19 1 -45 30 -40 45 8 19 18
19 42 1z"/>
<path d="M4894 5494 c-95 -99 -210 -142 -401 -151 l-112 -5 -11 43 c-6 24 -17
59 -26 78 -13 29 -18 32 -42 26 -49 -12 -57 -27 -43 -88 8 -36 9 -62 2 -79
-12 -32 -65 -77 -99 -83 -15 -3 -40 -10 -57 -16 -150 -54 -181 -61 -248 -56
-57 4 -79 11 -147 51 -96 56 -123 62 -172 42 -55 -23 -51 -49 13 -81 27 -14
79 -44 115 -65 35 -22 68 -40 72 -40 4 0 15 -7 25 -14 16 -12 15 -17 -13 -80
-38 -83 -90 -230 -97 -272 -10 -63 60 -71 97 -11 11 17 29 57 40 87 11 30 27
74 36 97 20 54 63 119 94 141 14 9 77 35 140 57 l115 40 68 -103 c65 -98 70
-103 100 -100 50 5 48 45 -7 154 -26 48 -46 94 -46 100 0 7 20 22 45 34 36 17
74 24 184 31 153 9 217 27 334 93 78 43 197 150 197 176 0 11 -16 24 -48 37
l-47 20 -61 -63z"/>
<path d="M6746 5431 c-14 -22 -30 -42 -36 -46 -5 -3 -10 -10 -10 -14 0 -11 61
-71 72 -71 16 0 7 25 -19 52 -23 24 -24 28 -9 34 11 4 26 -1 40 -15 26 -25 36
-26 36 -7 0 8 -12 23 -27 34 -20 15 -25 24 -17 32 7 7 21 4 46 -14 36 -24 48
-24 48 -1 0 12 -69 55 -89 55 -6 0 -22 -18 -35 -39z"/>
<path d="M5523 5450 c-24 -10 -32 -53 -13 -65 5 -3 20 -28 31 -56 12 -27 27
-49 35 -49 54 0 71 138 20 172 -15 10 -46 9 -73 -2z"/>
<path d="M6642 5324 c-12 -8 -22 -25 -22 -38 0 -25 38 -66 62 -66 19 0 48 32
48 53 0 24 -17 21 -23 -3 -3 -11 -13 -20 -22 -20 -16 0 -16 2 -1 23 27 36 30
49 15 58 -20 12 -32 11 -57 -7z m38 -23 c0 -5 -7 -12 -16 -15 -24 -9 -28 -7
-14 9 14 17 30 20 30 6z"/>
<path d="M6543 5250 c-18 -11 -33 -21 -33 -24 0 -2 12 -25 26 -50 30 -54 57
-50 29 4 -9 17 -14 39 -11 47 6 14 9 14 26 -2 11 -10 22 -26 25 -36 6 -18 35
-27 35 -11 0 13 -45 85 -55 89 -5 1 -25 -6 -42 -17z"/>
<path d="M6452 5248 c6 -18 28 -21 28 -4 0 9 -7 16 -16 16 -9 0 -14 -5 -12
-12z"/>
<path d="M6466 5193 c4 -16 14 -44 22 -63 13 -31 16 -32 19 -13 6 34 -16 103
-33 103 -11 0 -13 -7 -8 -27z"/>
<path d="M8121 8528 c-77 -38 -130 -138 -116 -223 9 -59 51 -123 100 -154 l44
-28 -28 -59 c-63 -133 -178 -219 -375 -281 -132 -42 -158 -63 -138 -108 17
-36 47 -39 147 -10 256 72 441 226 496 413 9 32 21 47 43 59 89 44 143 141
130 230 -21 140 -176 222 -303 161z m164 -128 c9 -10 19 -37 22 -59 5 -37 2
-44 -31 -77 -31 -31 -41 -36 -69 -30 -77 15 -111 105 -62 165 38 45 100 45
140 1z"/>
<path d="M6606 8488 c-27 -39 -15 -145 29 -243 21 -49 178 -253 200 -261 6 -3
24 0 38 5 23 9 27 16 27 50 0 33 -9 49 -59 109 -73 88 -118 178 -130 266 -5
37 -15 74 -22 82 -18 22 -65 17 -83 -8z"/>
<path d="M7272 8395 c-55 -24 -91 -55 -111 -93 -46 -90 -34 -181 30 -245 21
-22 39 -43 39 -49 0 -5 -11 -30 -24 -56 -37 -74 -80 -185 -78 -205 2 -30 22
-47 57 -47 41 0 56 18 88 110 54 155 60 164 121 183 69 22 114 59 138 115 76
170 -95 358 -260 287z m125 -120 c12 -8 27 -31 33 -51 32 -97 -79 -167 -151
-95 -21 22 -29 39 -29 66 0 73 88 121 147 80z"/>
<path d="M7846 7494 c-88 -19 -186 -64 -245 -111 -95 -77 -113 -118 -66 -149
30 -20 52 -13 111 36 65 53 160 98 241 114 38 7 78 18 91 25 30 16 30 64 0 85
-27 19 -42 19 -132 0z"/>
<path d="M8105 7071 c-43 -19 -99 -76 -110 -111 -6 -18 -12 -21 -37 -16 -17 3
-73 13 -124 22 -87 15 -96 15 -119 0 -15 -10 -25 -26 -25 -39 0 -47 19 -56
151 -75 127 -19 149 -25 149 -43 0 -24 58 -93 98 -116 63 -37 152 -37 216 1
80 47 121 152 96 244 -13 51 -72 119 -117 139 -45 18 -131 16 -178 -6z m124
-101 c20 0 61 -55 61 -82 0 -92 -95 -139 -161 -80 -38 34 -44 89 -13 123 23
26 74 50 92 44 8 -3 17 -5 21 -5z"/>
<path d="M4450 2141 c-69 -36 -97 -140 -54 -198 39 -51 71 -68 133 -68 71 1
112 27 136 87 52 130 -89 247 -215 179z"/>
<path d="M6544 2082 c-5 -4 -17 -23 -26 -42 -17 -37 -164 -379 -384 -895 -23
-55 -70 -163 -103 -239 -34 -77 -61 -141 -61 -143 0 -2 60 -3 134 -3 l134 0
63 155 64 155 305 0 305 0 61 -153 61 -152 142 -3 143 -3 -8 23 c-3 12 -20 51
-36 87 -17 37 -58 134 -93 216 -35 83 -96 224 -135 315 -78 177 -196 455 -250
585 -19 44 -38 86 -43 92 -10 14 -254 18 -273 5z m166 -349 c18 -49 41 -108
51 -133 9 -25 41 -105 72 -177 l54 -133 -214 0 c-200 0 -215 1 -210 18 3 9 34
87 69 172 36 85 80 197 98 248 19 50 37 92 41 92 3 0 21 -39 39 -87z"/>
<path d="M1428 2072 l-128 -3 0 -655 0 -656 378 4 c362 4 380 5 442 27 132 47
202 108 241 210 29 76 24 225 -9 288 -30 58 -77 109 -127 138 l-42 25 58 58
c68 68 84 112 83 227 -1 65 -6 91 -28 137 -45 95 -145 164 -271 187 -61 12
-367 18 -597 13z m528 -227 c28 -8 62 -28 79 -45 25 -26 30 -40 33 -93 4 -77
-19 -119 -81 -147 -37 -17 -66 -20 -239 -20 l-196 0 -4 153 c-2 83 -2 155 0
160 7 14 355 8 408 -8z m84 -548 c60 -29 85 -74 84 -150 -1 -72 -21 -103 -89
-137 -48 -24 -56 -24 -270 -25 -203 0 -220 1 -219 18 1 9 2 87 3 173 l1 157
223 -7 c200 -7 226 -9 267 -29z"/>
<path d="M7540 1958 c0 -62 0 -356 -1 -653 l0 -540 126 -3 125 -3 0 656 0 655
-125 0 -125 0 0 -112z"/>
<path d="M3061 1748 c-78 -9 -159 -47 -200 -93 -30 -34 -42 -43 -40 -27 1 4 1
31 0 60 l-1 52 -113 0 -113 0 1 -357 c1 -197 2 -418 3 -490 l2 -133 120 0 120
0 0 247 c0 136 5 275 11 310 23 130 103 201 239 211 l70 5 0 107 c0 124 4 120
-99 108z"/>
<path d="M3580 1746 c-36 -8 -90 -24 -121 -35 -60 -23 -139 -74 -139 -91 0 -6
19 -43 42 -84 l41 -74 51 28 c73 42 167 63 247 58 108 -8 160 -51 175 -147 l7
-41 -129 0 c-71 0 -158 -5 -194 -11 -179 -28 -290 -137 -290 -285 0 -134 54
-220 176 -280 55 -27 67 -29 174 -29 107 0 119 2 170 29 30 16 70 40 88 54
l32 24 0 -51 0 -51 111 0 110 0 -3 358 c-4 386 -5 389 -63 481 -76 122 -294
187 -485 147z m308 -620 c-7 -81 -34 -127 -96 -164 -39 -22 -59 -27 -117 -27
-80 0 -113 15 -146 68 -41 65 0 154 80 175 20 6 92 10 160 11 l124 1 -5 -64z"/>
<path d="M5394 1750 c-82 -12 -151 -39 -203 -80 -55 -43 -61 -40 -61 31 l0 39
-110 0 -110 0 0 -490 0 -490 120 0 120 0 0 203 c1 371 12 440 84 511 85 85
223 89 298 10 50 -54 52 -68 56 -406 l3 -318 120 0 120 0 -3 358 c-3 342 -4
359 -26 412 -67 167 -215 247 -408 220z"/>
<path d="M4400 1250 l0 -490 125 0 125 0 0 490 0 490 -125 0 -125 0 0 -490z"/>
</g>
</svg>
